<svg xmlns="http://www.w3.org/2000/svg" viewBox="0 0 187.8 67.48"><defs><style>.cls-1{fill:#003764}.cls-2{fill:#009bde}</style></defs><title>LF Logo</title><path class="cls-1" d="M73.18 3.96H83.7v1.08h-4.63v12.2h-1.26V5.04h-4.63V3.96zm11.77 0h1.27v5.77h7.88V3.96h1.26v13.28H94.1v-6.43h-7.88v6.43h-1.27V3.96zm13.09 0h9.17v1.08h-7.9v4.8h7.4v1.08h-7.4v5.24h7.99v1.08h-9.26V3.96zM73.23 50.18h8.43v1.08H74.5v4.8h6.36v1.08H74.5v6.32h-1.27V50.18zm15.55-.28c4.16 0 6.25 3.27 6.25 6.92s-2.08 6.92-6.25 6.92-6.27-3.27-6.27-6.92 2.08-6.92 6.27-6.92m0 12.75c3.5 0 5-2.94 5-5.84s-1.51-5.81-5-5.81-5 2.94-5 5.84 1.49 5.84 5 5.84m8.09-12.5h1.26v8.22c0 3.07 1.43 4.26 3.89 4.26s3.9-1.19 3.9-4.26v-8.22h1.26v8.5c0 2.73-1.47 5.06-5.17 5.06s-5.15-2.32-5.15-5.06v-8.5zm12.85 0h1.41l7.74 11.23h.03V50.18h1.27v13.28h-1.42l-7.73-11.23h-.04v11.23h-1.26V50.18zm13.11 0h4.59c4 .09 6.1 2.25 6.1 6.64s-2.08 6.54-6.1 6.64h-4.59V50.18zm1.26 12.2h2.7c3.81 0 5.47-1.58 5.47-5.56s-1.65-5.56-5.47-5.56h-2.7v11.12zm15.36-12.2h1.41l5.21 13.28h-1.36l-1.62-4.13h-6l-1.6 4.13h-1.39zm-2 8.07h5.22l-2.57-6.8zm7.14-8.07h10.52v1.08h-4.63v12.2h-1.26v-12.2h-4.63v-1.08zm11.86 0h1.26v13.28h-1.26zm9.55-.28c4.16 0 6.25 3.27 6.25 6.92s-2.08 6.92-6.25 6.92-6.27-3.27-6.27-6.92 2.08-6.92 6.27-6.92m0 12.75c3.5 0 5-2.94 5-5.84S169.54 51 166 51s-5 2.94-5 5.84 1.49 5.84 5 5.84m8.25-12.5h1.41l7.73 11.23h.04V50.18h1.26v13.28h-1.41l-7.73-11.23h-.04v11.23h-1.26V50.18zM73.18 21.63h7.19v17.35h10.32v5.97H73.18V21.63zm22.21 0h7.19v23.32h-7.19zm12.54 0h7.35l6.79 12.48h.07V21.63h6.79v23.32h-6.99l-7.15-12.73h-.07v12.73h-6.79V21.63zm47.55 14.31c0 6.5-3.43 9.57-10.62 9.57s-10.65-3.07-10.65-9.57V21.63h7.19v12.71c0 2.35 0 5.36 3.5 5.36s3.4-3 3.4-5.36V21.63h7.19v14.31zm11.43-3.4l-7.67-10.91h8.43l3.52 6.34 3.47-6.34h7.97l-7.48 10.98 8.32 12.34h-8.65L170.83 38l-4.11 6.95h-8.23l8.42-12.41z"/><path class="cls-2" d="M15.07 51.52V27.64H3.11v35.82h35.83V51.52H15.07z"/><path class="cls-1" d="M62.82 3.74H3.12v17.91h11.93v-5.92h35.83v35.79h-5.96v11.94h17.9V3.74z"/></svg>